<svg xmlns="http://www.w3.org/2000/svg" xmlns:xlink="http://www.w3.org/1999/xlink" version="1.1" x="0px" y="0px" viewBox="0 0 96 120" style="enable-background:new 0 0 96 96;" xml:space="preserve"><g><path d="M28.2,49.6l1.6,3.7c3.3-1.4,7.1-1.4,10.4,0l1.6-3.7C37.5,47.8,32.5,47.8,28.2,49.6z"/><path d="M56.2,49.6l1.6,3.7c3.3-1.4,7.1-1.4,10.4,0l1.6-3.7C65.5,47.8,60.5,47.8,56.2,49.6z"/><path d="M89.9,40C90,17.9,72.1,0,50,0c-0.7,0-1.3,0-2,0.1C26.8,1.1,10,18.6,10,40c-1.9,2.5-3,5.6-3,9v1c0,6.9,4.7,12.7,11,14.4   c0.2,16.8,13.4,30.5,30,31.5c0.7,0.1,1.3,0.1,2,0.1c13.3,0,24.7-8.1,29.5-19.7c7.8-5.2,13.2-14.9,13.4-25.9c0-0.1,0-0.3,0-0.4v-1   C92.9,45.6,91.8,42.5,89.9,40z M48,4.1C48.7,4,49.3,4,50,4c5,0,9.8,1,14.2,2.9C60.5,15.8,55,23.7,48,30c-7.3,6.7-16.2,11.8-26,14.5   V34c-2.9,0-5.5,0.8-7.8,2.2C16.1,18.8,30.3,5,48,4.1z M18,47v13.2c-4.1-1.6-7-5.6-7-10.2v-1c0-4.7,2.9-8.6,7-10.2V47z M78,64   c0,3.4-0.6,6.6-1.7,9.7c-2.3,1.4-4.9,2.3-7.5,2.7C68,73.8,65.7,72,63,72c-2.1,0-4,1.1-5,2.8c-2.6,0.8-5.2,1.2-8,1.2   c-0.7,0-1.3,0-2-0.1c-2.8-0.2-5.6-0.9-8.2-2l-1.6,3.7c3.1,1.3,6.4,2.1,9.8,2.3c0.7,0,1.3,0.1,2,0.1c2.4,0,4.8-0.3,7.1-0.9   c0.5,2.8,3,4.9,5.9,4.9c2.5,0,4.6-1.5,5.5-3.6c1.7-0.2,3.3-0.5,4.9-1.1C68.4,86.9,59.8,92,50,92c-0.7,0-1.3,0-2-0.1   c-14.5-1-26-13.1-26-27.9V48.7c9.7-2.5,18.5-7.2,26-13.3v-0.1c2.1-1.7,4.1-3.6,6-5.5c7.2,3.6,15.1,6,23.5,6.8   c0.3,1.7,0.5,3.5,0.5,5.4V64z M65,78c0,1.1-0.9,2-2,2s-2-0.9-2-2s0.9-2,2-2S65,76.9,65,78z M56.8,26.7c4.5-5.4,8.3-11.4,11-18   c8.9,5.1,15.5,13.9,17.5,24.3c-0.3,0-0.5,0-0.8,0C74.6,33,65.2,30.7,56.8,26.7z M81.5,69.4c0.3-1.6,0.4-3.3,0.5-5   c1.5-0.4,2.9-1,4.1-1.8C84.9,65.2,83.3,67.4,81.5,69.4z M89,49.5c0,0.4,0,0.8,0,1.1c-0.2,4.4-3.1,8.1-7,9.6V42v-3.2   c4.1,1.6,7,5.5,7,10.2V49.5z"/></g></svg>